<svg xmlns="http://www.w3.org/2000/svg" width="304.6" height="52.8" xml:space="preserve" viewBox="0 0 304.6 52.8"
     enable-background="new 0 0 304.6 52.8">
    <g transform="translate(60 36)">
        <path fill="none" stroke="#DFBEC9" stroke-width="3.939" stroke-miterlimit="3.502"
              d="M-51.9-34H.6c3.4 0 6.1 2.7 6.1 6.1V8.9C6.7 12.3 4 15 .6 15h-52.5c-3.4 0-6.1-2.7-6.1-6.1v-36.8c-.1-3.4 2.7-6.1 6.1-6.1zm-6.2 14.9H6.7"/>
        <circle fill="#CC2D7A" cx="-47.6" cy="-26.6" r="2.6"/>
        <circle fill="#E8358F" cx="-37.9" cy="-26.6" r="2.6"/>
        <circle fill="#FF3DA0" cx="-28.3" cy="-26.6" r="2.6"/>
    </g>
    <path fill="#FF3DA0"
          d="m88 41.2-7.2-30.1H87l4.5 20.7L97 11.1h7.2l5.3 21 4.6-21h6.1L113 41.2h-6.4l-6-22.5-6 22.5H88zm45.5-6.9 5.7 1c-.7 2.1-1.9 3.7-3.5 4.8s-3.6 1.7-6 1.7c-3.8 0-6.6-1.2-8.4-3.7-1.4-2-2.2-4.5-2.2-7.5 0-3.6.9-6.4 2.8-8.5s4.3-3.1 7.2-3.1c3.2 0 5.8 1.1 7.7 3.2s2.8 5.4 2.7 9.8h-14.4c0 1.7.5 3 1.4 4s2 1.4 3.3 1.4c.9 0 1.7-.2 2.3-.7.6-.6 1.1-1.4 1.4-2.4zm.4-5.9c0-1.7-.5-2.9-1.3-3.8s-1.8-1.3-3-1.3c-1.3 0-2.3.5-3.1 1.4-.8.9-1.2 2.2-1.2 3.7h8.6zm8.4 12.8V11.1h5.8v10.8c1.8-2 3.9-3 6.3-3 2.7 0 4.8 1 6.6 2.9s2.6 4.7 2.6 8.3c0 3.7-.9 6.6-2.7 8.6s-3.9 3-6.5 3c-1.2 0-2.5-.3-3.7-.9s-2.3-1.5-3.1-2.8v3.2h-5.3zm5.7-11.4c0 2.3.4 3.9 1.1 5 1 1.5 2.3 2.3 4 2.3 1.3 0 2.4-.5 3.3-1.6.9-1.1 1.3-2.8 1.3-5.1 0-2.5-.5-4.3-1.4-5.4s-2.1-1.7-3.5-1.7-2.5.5-3.4 1.6-1.4 2.7-1.4 4.9z"/>
    <path fill="#FFAEDB"
          d="M165.6 41.2V11.1h12.8c3.2 0 5.5.3 7 .8s2.6 1.5 3.5 2.9 1.3 3 1.3 4.7c0 2.3-.7 4.1-2 5.6s-3.3 2.4-5.9 2.8c1.3.8 2.4 1.6 3.3 2.5.9.9 2 2.5 3.5 4.9l3.7 5.9h-7.3l-4.4-6.5c-1.6-2.3-2.6-3.8-3.2-4.4s-1.2-1-1.8-1.3c-.6-.2-1.7-.3-3.1-.3h-1.2v12.6h-6.2v-.1zm6.1-17.4h4.5c2.9 0 4.7-.1 5.5-.4.8-.3 1.3-.7 1.7-1.3.4-.6.6-1.4.6-2.3 0-1-.3-1.8-.8-2.5-.5-.6-1.3-1-2.3-1.2-.5-.1-2-.1-4.4-.1h-4.7v7.8h-.1zm35.1 10.5 5.7 1c-.7 2.1-1.9 3.7-3.5 4.8s-3.6 1.7-6 1.7c-3.8 0-6.6-1.2-8.4-3.7-1.4-2-2.2-4.5-2.2-7.5 0-3.6.9-6.4 2.8-8.5 1.9-2.1 4.3-3.1 7.2-3.1 3.2 0 5.8 1.1 7.7 3.2s2.8 5.4 2.7 9.8h-14.4c0 1.7.5 3 1.4 4s2 1.4 3.3 1.4c.9 0 1.7-.2 2.3-.7.6-.6 1.1-1.4 1.4-2.4zm.3-5.9c0-1.7-.5-2.9-1.3-3.8-.8-.9-1.8-1.3-3-1.3-1.3 0-2.3.5-3.1 1.4-.8.9-1.2 2.2-1.2 3.7h8.6zm14.7 12.8L213 19.4h6.1l4.1 11.1 1.2 3.7c.3-.9.5-1.6.6-1.9l.6-1.8 4.1-11.1h5.9l-8.7 21.8h-5.1zm15.7-24.8v-5.3h5.8v5.3h-5.8zm0 24.8V19.4h5.8v21.8h-5.8zm7.6 0v-4.5l8.2-9.4c1.3-1.5 2.3-2.6 3-3.3-.7 0-1.6.1-2.6.1H246v-4.8h18v4.1l-8.3 9.6-2.9 3.2c1.6-.1 2.6-.1 3-.1h8.9v5.1h-19.6zM265.4 30c0-1.9.5-3.8 1.4-5.6.9-1.8 2.3-3.2 4-4.1s3.7-1.4 5.8-1.4c3.3 0 6 1.1 8.1 3.2s3.2 4.8 3.2 8.1-1.1 6-3.2 8.2-4.8 3.3-8 3.3c-2 0-3.9-.5-5.7-1.4s-3.2-2.2-4.1-4c-1-1.7-1.5-3.8-1.5-6.3zm5.9.3c0 2.2.5 3.8 1.5 5 1 1.1 2.3 1.7 3.8 1.7s2.8-.6 3.8-1.7 1.5-2.8 1.5-5c0-2.1-.5-3.8-1.5-4.9s-2.3-1.7-3.8-1.7-2.8.6-3.8 1.7-1.5 2.7-1.5 4.9zm24.9 10.9h-5.8V19.4h5.4v3.1c.9-1.5 1.7-2.4 2.5-2.9.7-.5 1.6-.7 2.5-.7 1.3 0 2.6.4 3.8 1.1l-1.8 5c-1-.6-1.9-.9-2.7-.9-.8 0-1.5.2-2.1.7-.6.4-1 1.2-1.3 2.4s-.5 3.6-.5 7.3v6.7zM83.2 52.6V46h2.5c.4 0 .8 0 1 .1.3.1.6.2.8.3.2.2.4.4.5.6.1.3.2.6.2.9 0 .6-.2 1-.5 1.4-.4.4-1 .6-1.9.6H84v2.7h-.8zm.8-3.4h1.7c.6 0 1-.1 1.2-.3s.4-.5.4-.9c0-.3-.1-.5-.2-.7s-.3-.3-.5-.4c-.1 0-.4-.1-.8-.1H84v2.4zm8.3.2c0-1.1.3-1.9.9-2.6.6-.6 1.3-.9 2.3-.9.6 0 1.2.1 1.6.4.5.3.9.7 1.1 1.2s.4 1.1.4 1.8-.1 1.3-.4 1.8-.7.9-1.1 1.2-1.1.5-1.6.5c-.6 0-1.2-.2-1.7-.4-.5-.3-.9-.7-1.1-1.2s-.4-1.2-.4-1.8zm.9 0c0 .8.2 1.4.6 1.9s1 .7 1.6.7c.7 0 1.2-.2 1.6-.7s.6-1.1.6-2c0-.5-.1-1-.3-1.4-.2-.4-.4-.7-.8-.9-.3-.2-.7-.3-1.2-.3-.6 0-1.1.2-1.6.6s-.5 1.2-.5 2.1zm9.7 1.4.8-.2c.1.3.2.6.5 1 .3.3.6.5 1.1.5s.8-.1 1.1-.4.4-.5.4-.9-.1-.7-.4-.9-.7-.3-1.1-.3h-.4v-.8c.4 0 .7 0 .9-.1.2 0 .4-.2.6-.4s.2-.4.2-.6c0-.3-.1-.5-.3-.8-.2-.2-.5-.3-.9-.3-.3 0-.6.1-.9.2s-.4.4-.5.7-.1.5-.1.6l-.8-.2c.2-1.4 1-2.1 2.3-2.1.6 0 1.2.2 1.5.5s.6.8.6 1.3c0 .6-.3 1.1-.9 1.4.3.1.6.3.8.6.2.3.3.6.3 1 0 .6-.2 1-.7 1.4-.4.4-1 .6-1.7.6-1.2.2-2-.5-2.4-1.8zm9.4 1.8V46h2.5c.4 0 .8 0 1 .1.3.1.6.2.8.3.2.2.4.4.5.6.1.3.2.6.2.9 0 .6-.2 1-.5 1.4-.4.4-1 .6-1.9.6h-1.7v2.7h-.9zm.9-3.4h1.7c.6 0 1-.1 1.2-.3s.4-.5.4-.9c0-.3-.1-.5-.2-.7s-.3-.3-.5-.4c-.1 0-.4-.1-.8-.1h-1.7l-.1 2.4zm8.2.2c0-1.1.3-1.9.9-2.6.6-.6 1.3-.9 2.3-.9.6 0 1.2.1 1.6.4.5.3.9.7 1.1 1.2s.4 1.1.4 1.8-.1 1.3-.4 1.8-.7.9-1.1 1.2-1 .4-1.6.4-1.2-.2-1.7-.4c-.5-.3-.9-.7-1.1-1.2s-.4-1.1-.4-1.7zm.9 0c0 .8.2 1.4.6 1.9s1 .7 1.6.7c.7 0 1.2-.2 1.6-.7s.6-1.1.6-2c0-.5-.1-1-.3-1.4-.2-.4-.4-.7-.8-.9-.3-.2-.7-.3-1.2-.3-.6 0-1.1.2-1.6.6s-.5 1.2-.5 2.1zm10.1-3.3h4.3v.7h-3.4v2h1.6c.6 0 1 .1 1.4.2s.6.3.8.6.3.7.3 1.1c0 .3-.1.6-.2.9-.1.3-.4.5-.7.7s-.8.3-1.5.3h-2.6v-6.5zm.9 5.8h1.7c.5 0 .8-.1 1.1-.3s.4-.5.4-.9c0-.3-.1-.5-.2-.7-.1-.2-.3-.3-.6-.4-.2-.1-.6-.1-1.2-.1h-1.2v2.4zm8.6-5.8h.9V49c.4 0 .7-.1.8-.2.2-.2.4-.5.6-1.1.2-.4.3-.7.5-.9.1-.2.3-.3.5-.4s.5-.2.7-.2h.5v.6h-.4c-.3 0-.5.1-.6.2-.1.1-.3.4-.5.9-.2.6-.4.9-.6 1.1-.2.1-.3.3-.5.3.4.1.8.5 1.3 1.2l1.4 2.2h-1.1l-1.1-1.8c-.3-.5-.6-.8-.8-1s-.5-.3-.8-.3v3.1h-.9v-6.6h.1zm8.1 6.5 2.5-6.6h.9l2.7 6.6h-1l-.8-2h-2.8l-.7 2h-.8zm1.9-2.7h2.2l-.7-1.8c-.2-.6-.4-1-.5-1.4-.1.4-.2.8-.4 1.3l-.6 1.9zm19.2.4.9.2c-.2.7-.5 1.3-1 1.6-.5.4-1.1.6-1.7.6-.7 0-1.3-.1-1.7-.4-.4-.3-.8-.7-1-1.3-.2-.5-.3-1.1-.3-1.8s.1-1.3.4-1.8.6-.9 1.1-1.2 1-.4 1.6-.4c.7 0 1.2.2 1.7.5.4.3.8.8.9 1.4l-.9.2c-.2-.5-.4-.8-.7-1s-.7-.3-1.1-.3c-.5 0-.9.1-1.3.4-.3.2-.6.6-.7 1-.1.4-.2.8-.2 1.3 0 .6.1 1 .2 1.5.2.4.4.7.8.9.3.2.7.3 1.1.3.5 0 .9-.1 1.2-.4.3-.3.6-.7.7-1.3zm4.5 2.3 2.5-6.6h.9l2.7 6.6h-1l-.8-2h-2.8l-.7 2h-.8zm1.9-2.7h2.2l-.7-1.8c-.2-.6-.4-1-.5-1.4-.1.4-.2.8-.4 1.3l-.6 1.9zm8.5-3.8h.8v5.2l3.5-5.2h.9v6.6h-.8v-5.2l-3.5 5.2h-.9v-6.6zm3.2-1.6h.6c0 .4-.2.7-.4.9s-.5.3-.9.3-.7-.1-.9-.3-.4-.5-.4-.9h.6c0 .2.1.4.2.5.1.1.3.2.5.2s.4 0 .5-.1c.1-.2.2-.4.2-.6zm8.5 8.1v-5.8h-2.2V46h5.2v.8h-2.2v5.8h-.8zm7.6 0V46h.9v6.6h-.9zm5.9 0V46h2.5c.5 0 .9.1 1.2.2s.5.3.7.6.3.6.3.9c0 .3-.1.5-.2.8-.2.2-.4.4-.7.6.4.1.7.3.9.6s.3.6.3 1c0 .3-.1.6-.2.9-.1.3-.3.5-.5.6s-.4.3-.7.3c-.3.1-.6.1-1.1.1h-2.5zm.8-3.8h1.4c.4 0 .7 0 .8-.1.2-.1.4-.2.5-.3.1-.2.2-.3.2-.6 0-.2-.1-.4-.2-.6-.1-.2-.3-.3-.4-.3-.2-.1-.5-.1-1-.1H212v2zm0 3.1h2.2c.2 0 .4-.1.5-.2s.2-.2.3-.4.1-.3.1-.6c0-.2-.1-.5-.2-.6-.1-.2-.3-.3-.5-.4-.2-.1-.5-.1-1-.1H212v2.3z"/>
</svg>
